<?xml version="1.0" standalone="no"?>
<!DOCTYPE svg PUBLIC "-//W3C//DTD SVG 20010904//EN"
 "http://www.w3.org/TR/2001/REC-SVG-20010904/DTD/svg10.dtd">
<svg version="1.0" xmlns="http://www.w3.org/2000/svg"
 width="700.000000pt" height="700.000000pt" viewBox="0 0 700.000000 700.000000"
 preserveAspectRatio="xMidYMid meet">
<metadata>
Created by potrace 1.11, written by Peter Selinger 2001-2013
</metadata>
<g transform="translate(0.000000,700.000000) scale(0.100000,-0.100000)"
fill="#000000" stroke="none">
<path d="M3549 4586 c-2 -2 -61 -7 -131 -10 -69 -4 -134 -8 -145 -10 -10 -2
-49 -7 -88 -10 -72 -6 -127 -12 -205 -20 -25 -3 -76 -8 -115 -12 -38 -3 -79
-8 -90 -10 -11 -2 -42 -6 -70 -9 -27 -3 -104 -15 -170 -26 -66 -11 -133 -22
-150 -25 -210 -33 -506 -113 -635 -171 -183 -82 -181 -152 6 -243 117 -57 432
-148 604 -175 19 -3 42 -8 50 -10 8 -2 31 -6 50 -9 225 -33 328 -46 385 -51
17 -2 59 -6 95 -9 36 -4 110 -11 165 -16 55 -6 123 -12 150 -15 250 -26 472
-39 646 -39 159 0 166 -3 101 -46 -105 -70 -769 -548 -793 -570 -9 -8 -54 -44
-100 -80 -308 -239 -427 -418 -316 -477 47 -25 178 -27 290 -4 97 19 251 63
302 85 16 8 46 19 65 27 96 35 375 168 545 259 124 67 364 190 369 190 3 0
-12 -34 -34 -76 -149 -278 -246 -782 -183 -949 15 -41 24 -52 53 -61 27 -9 41
-8 70 3 155 65 483 458 707 848 165 288 266 512 337 745 80 265 94 500 37 633
-67 157 -343 271 -766 317 -55 6 -116 13 -135 16 -41 7 -895 16 -901 10z"/>
</g>
</svg>
